<svg width="394" height="330" viewBox="0 0 394 330" fill="none" xmlns="http://www.w3.org/2000/svg">
<path d="M393.791 165.106L393.871 164.867C393.871 144.352 390.093 124.706 383.216 106.572C383.202 106.535 383.188 106.498 383.174 106.462C382.789 105.45 382.397 104.441 381.993 103.438C381.745 102.818 381.49 102.201 381.234 101.584C381.059 101.165 380.886 100.745 380.708 100.328C372.687 81.408 360.987 63.689 345.586 48.288C333.206 35.908 319.213 25.85 304.207 18.174C304.084 18.111 303.962 18.047 303.839 17.985C302.976 17.546 302.11 17.115 301.241 16.692C300.509 16.334 299.773 15.983 299.034 15.635C298.622 15.442 298.211 15.246 297.798 15.057C276.849 5.399 253.549 0 229.008 0C184.346 0 142.907 18.008 112.642 48.185L112.43 48.291C80.349 80.372 64.282 122.493 64.222 164.633L64.145 164.867C64.145 185.394 67.927 205.051 74.812 223.193C74.813 223.197 74.815 223.201 74.816 223.204C75.213 224.251 75.619 225.293 76.037 226.33C76.27 226.913 76.511 227.494 76.751 228.075C76.942 228.532 77.131 228.99 77.325 229.446C85.346 248.35 97.04 266.053 112.43 281.443C124.834 293.847 138.856 303.92 153.894 311.603C153.966 311.64 154.038 311.678 154.11 311.715C155.019 312.178 155.932 312.633 156.849 313.078C157.51 313.401 158.176 313.718 158.842 314.032C159.324 314.258 159.804 314.487 160.287 314.708C181.218 324.346 204.494 329.731 229.007 329.731C273.675 329.731 315.117 311.723 345.38 281.544L345.581 281.443C377.661 249.363 393.729 207.244 393.791 165.106Z" fill="#FFDA2D"/>
<path d="M229.008 0V329.73C281.891 329.73 330.254 304.492 360.895 263.695C360.895 263.695 376.5 243.367 385 220.867C393.5 198.367 393.871 164.867 393.871 164.867C393.871 73.961 319.914 0 229.008 0Z" fill="#FDBF00"/>
<path d="M96.129 305.985L192.262 209.852L141.094 209.852L141.094 30L51.168 30L51.168 209.852L8.40421e-06 209.852L96.129 305.985Z" fill="#57D9AD"/>
<path d="M8.39975e-06 209.852L51.168 209.852L51.168 30L96.129 40L96.129 305.774L96.082 305.934L8.39975e-06 209.852Z" fill="#26BFA6"/>
<path d="M229.008 147.999V203.248H230.28V173.607L253.697 132.152H235.66L229.008 147.999Z" fill="#EA9E06"/>
<path d="M310.34 139.219C303.484 134.051 294.728 131.624 281.226 131.624C273.104 131.624 265.404 132.151 259.497 133.101V202.932C263.506 203.459 269.413 203.987 277.746 203.987C291.67 203.987 303.061 201.034 310.552 194.81C317.408 189.008 322.365 179.62 322.365 166.013C322.364 153.459 317.724 144.704 310.34 139.219ZM281.226 191.433C279.222 191.433 277.007 191.433 275.635 191.117V144.599C277.007 144.283 279.327 143.966 282.914 143.966C296.732 143.966 305.382 151.772 305.276 166.54C305.276 183.522 295.782 191.539 281.226 191.433Z" fill="#EA9E06"/>
<path d="M169.525 132.152H153.386V203.248H197.794V189.746H169.525V132.152Z" fill="#FDBF00"/>
<path d="M228.487 149.24C226.378 154.303 224.69 158.417 223.108 162.847H222.897C221.104 158.206 219.627 154.409 217.412 149.24L210.134 132.152H191.78L214.248 174.134V203.248H229.009V147.999L228.487 149.24Z" fill="#FDBF00"/>
</svg>
